<svg width="70" height="70" viewBox="0 0 70 70" fill="none" xmlns="http://www.w3.org/2000/svg">
<path d="M22.7607 0.25C30.3925 0.250264 36.5791 6.43756 36.5791 14.0693C36.5794 21.7009 42.7659 27.8874 50.3975 27.8877H53.04C62.1307 27.888 69.5 35.2579 69.5 44.3486V52.9814C69.4997 62.2423 61.9923 69.7497 52.7314 69.75H45.0537C40.0329 69.75 35.9622 65.6799 35.9619 60.6592C35.9619 55.6382 31.8911 51.5674 26.8701 51.5674H17.9814C8.051 51.5674 0.000263559 43.5173 0 33.5869V18.5391C0.000263214 8.43825 8.18916 0.25 18.29 0.25H22.7607ZM26.418 56.3379C29.336 56.3379 31.702 58.7031 31.7021 61.6211C31.7021 64.5392 29.336 66.9053 26.418 66.9053H22.3535C19.4356 66.9051 17.0703 64.5391 17.0703 61.6211C17.0704 58.7032 19.4357 56.338 22.3535 56.3379H26.418ZM57.7139 10.0039C61.7541 10.0041 65.0293 13.2801 65.0293 17.3203C65.0292 21.3605 61.754 24.6355 57.7139 24.6357H52.8359C48.7957 24.6356 45.5206 21.3605 45.5205 17.3203C45.5205 13.28 48.7957 10.0041 52.8359 10.0039H57.7139Z" fill="url(#paint0_linear_93_73)"/>
<defs>
<linearGradient id="paint0_linear_93_73" x1="34.75" y1="0.25" x2="34.75" y2="69.75" gradientUnits="userSpaceOnUse">
<stop stop-color="#7149C6"/>
<stop offset="1" stop-color="#FF0025"/>
</linearGradient>
</defs>
</svg>
